# xmcd CD database file
#
# Track frame offsets:
#	150
#	59924
#	115880
#	158918
#	214354
#	261557
#	308601
#
# Disc length: 4408 seconds
#
# Revision: 0
# Processed by: cddbd v1.5.2PL0 Copyright (c) Steve Scherf et al.
# Submitted via: CDex 1.78
#
DISCID=6c113607
DTITLE=Pushpa and Arun Adhikari - Hanuman Chalisa CD2
DYEAR=2006
DGENRE=India devotional
TTITLE0=Sadhna Sargam - Hanuman Chalisa
TTITLE1=Shaan Mukharjee - Hanuman Chalisa
TTITLE2=Alka Yagnik - Hanuman Chalisa
TTITLE3=Roopkumar Rathod - Hanuman Chalisa
TTITLE4=Jaspinder Narula - Hanuman Chalisa
TTITLE5=Parthiv Gohil - Hanuman Chalisa
TTITLE6=Udit Narayan - Manojvam Marut Tulya (Mantra)
EXTD=YEAR: 2006
EXTT0=
EXTT1=
EXTT2=
EXTT3=
EXTT4=
EXTT5=
EXTT6=
PLAYORDER=
